<?xml version="1.0" encoding="utf-8"?>
<!-- Generator: Adobe Illustrator 24.2.1, SVG Export Plug-In . SVG Version: 6.00 Build 0)  -->
<svg version="1.1" id="Layer_1" xmlns="http://www.w3.org/2000/svg" xmlns:xlink="http://www.w3.org/1999/xlink" x="0px" y="0px"
	 viewBox="0 0 200 200" style="enable-background:new 0 0 200 200;" xml:space="preserve">
	<style type="text/css">
		.st0{fill:#E91431;}
	</style>
	<g>
		<path class="st0" d="M84.4,85.3c0.1-0.2,0-0.5-0.1-0.7c-0.2-0.2-0.4-0.3-0.7-0.3h-7L68,113.3l-3.3-14.1l10-13.6
			c0.1-0.1,0.1-0.2,0.1-0.3l0.2-0.6c0.1-0.2-0.1-0.4-0.2-0.4c0,0-0.1,0-0.1,0h-7.1L60,95.4l3.3-10.1c0.1-0.4-0.1-0.9-0.6-1
			c-0.1,0-0.2,0-0.2,0h-7l-6.1,20.7c0.1-3.6-2.6-6.3-4.2-8.1c-1.3-1.4-2.1-2.5-1.9-3.6c0.2-1.6,1.5-2.8,3.1-2.8
			c1.8-0.1,2.5,0.4,3.6,0.9c0.1,0.1,0.3,0.1,0.4,0.1c0.1,0,0.2,0,0.3-0.1c0.2-0.1,0.4-0.3,0.5-0.5l1.6-5.5l-1.1-0.5l-0.2-0.1l-0.1,0
			l0,0c-1.3-0.6-2.8-0.9-4.3-0.8c-6.2,0-11.8,4.4-12.7,9.8c-0.6,3.8,1.8,6.5,3.6,8.4l0.2,0.2c1.3,1.4,2.2,2.4,2,3.7
			c-0.3,1.7-2,2.7-3.6,2.9c-1.8,0.1-2.9-0.4-4.3-1c-0.2-0.1-0.5-0.2-0.8-0.1c-0.3,0.1-0.5,0.3-0.6,0.6l-1.6,5.3l0,0l-0.2,0.7
			c0,0,3.1,1.6,6.6,1.6c5.3,0,9.8-2,12.5-6.9l-1.6,5.4c-0.1,0.2,0,0.5,0.1,0.7c0.2,0.2,0.4,0.3,0.7,0.3h7l1.8-6l2.1-3.1l1.6,8.4
			c0.1,0.4,0.4,0.7,0.8,0.7h14.8L84.4,85.3z"/>
		<path class="st0" d="M103.2,86.6c-1.4-1.5-3.3-2.4-5.4-2.3H86.1l-0.5,1.6c0,0.2,0,0.3,0.1,0.5l0.3,0.5c0.3,0.5,0.4,1.1,0.2,1.7
			l-7.6,25.7c-0.1,0.4,0.1,0.9,0.5,1c0.1,0,0.1,0,0.2,0h6.8l2.1-7.2h3.1c7.4,0.1,11.1-5.1,12.8-10.7c0.7-2.3,1-4,1-5.1
			C105.2,90,104.6,88.2,103.2,86.6z M97.6,93.2c-0.1,1.5-0.6,3.3-1.3,4.8c-0.9,1.9-1.7,3.4-4,3.6l-2,0L93.4,91l2.6,0
			c0.4,0,0.7,0.1,1,0.4C97.4,91.8,97.6,92.4,97.6,93.2z"/>
		<path class="st0" d="M113,97.3h-4.6l-5.2,17.6c-0.1,0.2,0.1,0.4,0.3,0.5c0,0,0.1,0,0.1,0l4.3,0c6.9,0,9.3-8.6,9.5-12.2
			C117.6,99.2,115.4,97.3,113,97.3z M113.8,103.2c-0.1,2.2-1.8,9.1-5.1,9.1h-1.1l3.5-12.1h1C113.1,100.3,113.9,101.2,113.8,103.2z"/>
		<path class="st0" d="M122.6,85c0-0.1,0-0.3-0.2-0.3c0,0,0,0-0.1,0h-1.7l-1.2,4.1h-2l1.1-3.8c0-0.1,0-0.3-0.2-0.3c0,0,0,0-0.1,0
			h-1.7l-2.9,9.8c0,0.1,0,0.3,0.2,0.3c0,0,0,0,0.1,0h1.7l1.3-4.4h2l-1.2,4.1c0,0.1,0,0.3,0.2,0.3c0,0,0,0,0.1,0h1.7L122.6,85z"/>
		<path class="st0" d="M128.6,84.7h-4.3l0,0.2l-2.8,9.7c0,0.1,0,0.3,0.2,0.3c0,0,0,0,0.1,0h4.3l0.4-1.4c0-0.1,0-0.2-0.1-0.3
			c0,0-0.1,0-0.1,0h-2.3l0.8-2.6h2.1l0.4-1.4c0-0.1,0-0.3-0.2-0.3c0,0,0,0-0.1,0h-1.8l0.7-2.4h2.6l0.4-1.4
			C128.8,84.8,128.8,84.7,128.6,84.7C128.6,84.7,128.6,84.7,128.6,84.7z"/>
		<path class="st0" d="M115.2,86.4l0.4-1.4c0-0.1,0-0.3-0.2-0.3c0,0,0,0-0.1,0h-4.9l-0.4,1.4c0,0.1,0,0.3,0.2,0.3c0,0,0,0,0.1,0h1.3
			l-2.4,8.2c0,0.1,0,0.3,0.2,0.3c0,0,0,0,0.1,0h1.7l2.5-8.5H115.2z"/>
		<path class="st0" d="M124.7,97.3h-3l-5.2,17.6c-0.1,0.2,0,0.4,0.3,0.5c0,0,0.1,0,0.1,0h3l5.2-17.6c0.1-0.2-0.1-0.4-0.3-0.5
			C124.8,97.3,124.7,97.3,124.7,97.3z"/>
		<path class="st0" d="M149.3,97.8c0.1-0.2,0-0.4-0.2-0.5c0,0-0.1,0-0.1,0h-3l-2.1,7.3h-3.6l2-6.8c0.1-0.2,0-0.4-0.3-0.5
			c0,0-0.1,0-0.1,0h-3l-5.2,17.6c-0.1,0.2,0,0.4,0.3,0.5c0,0,0.1,0,0.1,0h3l2.3-7.8h3.6l-2.1,7.3c-0.1,0.2,0,0.4,0.2,0.5
			c0,0,0.1,0,0.1,0h3L149.3,97.8z"/>
		<path class="st0" d="M159.8,97.3h-7.7l-5.2,17.6c-0.1,0.2,0,0.4,0.3,0.5c0,0,0.1,0,0.1,0h7.7l0.7-2.5c0.1-0.2,0-0.4-0.3-0.5
			c0,0-0.1,0-0.1,0h-4.1l1.4-4.7h3.6l0.8-2.5c0.1-0.2,0-0.4-0.3-0.5c0,0-0.1,0-0.1,0h-3.2l1.3-4.4h4.6l0.7-2.5c0.1-0.2,0-0.4-0.2-0.5
			C159.8,97.3,159.8,97.3,159.8,97.3z"/>
		<path class="st0" d="M129.8,102.2c0.2-1.2,1.2-2.1,2.4-2.2c0.7,0,1.4,0.1,2,0.4c0.3,0.1,0.6,0,0.8-0.3c0,0,0,0,0-0.1l0.7-2.4
			c-0.9-0.4-1.9-0.6-3-0.6c-3.2,0-6.4,2.4-6.9,5.6c-0.3,2.2,1,3.7,2,4.9c0.8,0.9,1.4,1.7,1.3,2.7c-0.3,1.5-1.4,2.2-2.6,2.3
			c-0.9,0.1-1.4,0-2.4-0.4c-0.3-0.1-0.6-0.1-0.7,0.2c0,0,0,0.1-0.1,0.1l-0.8,2.7c1.1,0.4,2.3,0.6,3.5,0.6c3.5,0,6.5-2.6,7.1-5.9
			c0.3-2.2-1-3.8-2-5C130.2,104,129.6,103.2,129.8,102.2z"/>
		<path class="st0" d="M164.6,102.2c0.2-1.2,1.2-2.1,2.4-2.2c0.7,0,1.4,0.1,2,0.4c0.3,0.1,0.6,0,0.8-0.3c0,0,0,0,0-0.1l0.7-2.4
			c-0.9-0.4-1.9-0.6-3-0.6c-3.2,0-6.4,2.4-6.9,5.6c-0.3,2.2,1,3.7,2,4.9c0.8,0.9,1.4,1.7,1.3,2.7c-0.3,1.5-1.4,2.2-2.6,2.3
			c-0.9,0.1-1.4,0-2.4-0.4c-0.3-0.1-0.6-0.1-0.7,0.2c0,0,0,0.1-0.1,0.1l-0.8,2.7c1.1,0.4,2.3,0.6,3.5,0.6c3.5,0,6.5-2.6,7.1-5.9
			c0.3-2.2-1-3.8-2-5C165.1,104,164.4,103.2,164.6,102.2z"/>
	</g>
</svg>
